<svg xmlns="http://www.w3.org/2000/svg" width="19.685" height="17.721" viewBox="0 0 19.685 17.721"><defs><style>.a{fill:#ffcd31;}</style></defs><path class="a" d="M19.681,8.627a.33.33,0,0,0,0-.04.384.384,0,0,0,0-.048.28.28,0,0,0-.007-.04.325.325,0,0,0-.014-.046c0-.008,0-.016-.007-.024s-.007-.01-.01-.015,0-.011-.008-.017L16.356,3.146a.337.337,0,0,0-.053-.065h0a.322.322,0,0,0-.1-.061s-.008-.006-.012-.008l-.011,0a.322.322,0,0,0-.1-.019H3.608a.321.321,0,0,0-.1.018l-.011,0s-.008.006-.012.008a.327.327,0,0,0-.094.057l-.006,0a.33.33,0,0,0-.053.065L.049,8.4c0,.005,0,.011-.008.017s-.008.01-.01.015,0,.016-.008.024A.324.324,0,0,0,.009,8.5.339.339,0,0,0,0,8.539a.258.258,0,0,0,0,.048.33.33,0,0,0,0,.04.3.3,0,0,0,.012.047.332.332,0,0,0,.015.038c0,.006,0,.012.007.018s.013.017.019.026a.2.2,0,0,0,.013.021L9.584,20.586l0,0,0,0,0,0a.322.322,0,0,0,.1.077l.029.014a.324.324,0,0,0,.126.029.331.331,0,0,0,.113-.02c.006,0,.009-.007.015-.009a.3.3,0,0,0,.045-.028.317.317,0,0,0,.068-.053s.011-.007.016-.012L19.615,8.776c.005-.007.008-.014.013-.021a.287.287,0,0,0,.019-.026c0-.006,0-.012.007-.018a.31.31,0,0,0,.015-.038A.372.372,0,0,0,19.681,8.627ZM10.532,3.649h5.073L14.011,7.93Zm2.887,4.594H6.266l3.576-4.4ZM5.652,7.958,4.077,3.649H9.153Zm8,.941L9.785,19.271,6,8.9Zm2.5-4.839,2.614,4.183H14.594Zm-12.623,0L5.057,8.243H.918ZM5.3,8.9l3.557,9.735L1.012,8.9Zm5.333,9.986L14.35,8.9h4.324Z" transform="translate(0 -2.992)"/></svg>