<?xml version="1.0" encoding="UTF-8"?>
<svg id="Layer_1" xmlns="http://www.w3.org/2000/svg" version="1.1" viewBox="0 0 1094 228.8">
  <!-- Generator: Adobe Illustrator 29.1.0, SVG Export Plug-In . SVG Version: 2.1.0 Build 142)  -->
  <defs>
    <style>
      .st0, .st1 {
        fill: #fff;
      }

      .st1 {
        font-family: Poppins-ExtraBold, Poppins;
        font-size: 170px;
        font-weight: 700;
        isolation: isolate;
      }

      .st2 {
        fill: #8585ff;
      }
    </style>
  </defs>
  <text class="st1" transform="translate(-230 1046.4)"><tspan x="0" y="0">FREEUSE</tspan></text>
  <text class="st1" transform="translate(553 1046.4)"><tspan x="0" y="0">Fantasy</tspan></text>
  <g>
    <polygon class="st2" points="132.6 53.9 131.8 26.1 81 27.5 132.6 53.9"/>
    <polygon class="st0" points="121.2 55.4 66.9 27.5 5.5 29.2 10.6 216.7 60.4 215.3 58.4 141.7 119.8 140 118.7 99.8 57.4 101.5 56.5 69 121.5 67.2 121.2 55.4"/>
    <path class="st2" d="M210.4,67.4l-.3-10.6,10.2-.3c11.2-.3,19.2,1.5,24,5.3,3.6,2.8,5.9,7.2,7,13l50.4,9.2c.4-3.4.5-6.9.4-10.6-.3-9.6-2.3-18.3-6.2-26.1-3.8-7.8-9.2-14.2-16.1-19.2-6.1-4.4-13.3-7.4-21.6-9.1-8.3-1.7-22.9-2.3-43.8-1.7l-53.4,1.5,1.1,39.8,48.2,8.8Z"/>
    <path class="st0" d="M279.5,115.6c4.4-6,7.3-13.1,8.8-21.2l-49.3-9c0,.9.1,1.8.2,2.8.2,8-2.2,14-7.1,17.9-5,3.9-13,6-24,6.3l-9.5.3-.9-34.8-48.2-8.8,3.9,143.8,47.9-1.3-2-73.4,45,72.2,57.8-1.6-53.2-74.2c13.6-3.4,23.8-9.7,30.7-19Z"/>
    <polygon class="st2" points="379.5 77.3 379 56.6 444 54.9 442.9 13.8 328 16.9 329.5 72.4 379.5 77.3"/>
    <polygon class="st0" points="369.3 133.3 430.6 131.6 429.6 91.4 368.2 93 368 85.1 318 80.2 321.5 208.3 436.4 205.1 435.2 163.1 370.2 164.9 369.3 133.3"/>
    <polygon class="st2" points="591.6 94.2 591.2 79.6 529.8 81.3 528.9 48.7 594 47 592.9 5.8 478 9 480 83.2 591.6 94.2"/>
    <polygon class="st0" points="518 129.2 579.3 127.6 578.8 105.8 467.2 94.9 470.2 204.2 585.1 201.1 583.9 159.1 518.9 160.9 518 129.2"/>
    <polygon class="st2" points="1023.4 148.4 1023.4 135.3 1084.8 135.3 1084.8 95 1023.4 95 1023.4 62.5 1088.5 62.5 1088.5 21.4 973.5 21.4 973.5 138.9 1023.4 148.4"/>
    <polygon class="st0" points="1009.2 157.5 959.3 148.1 959.3 214.1 1074.3 214.1 1074.3 172.1 1009.2 172.1 1009.2 157.5"/>
    <path class="st2" d="M827.8,111.2l115.6,22c-.5-2.4-1.2-4.6-1.9-6.8-2.3-6.4-5.7-12-10.1-16.6-6.6-6.7-20.3-12.9-41.1-18.6l-2.3-.6c-9.7-2.6-16.2-5.3-19.5-8.1-3.4-2.8-5.1-6.6-5.1-11.3s1.9-8.4,5.8-11.3c3.8-2.9,8.8-4.4,15-4.4s12,1.3,18.1,3.8c6.1,2.5,12.1,6.3,17.9,11.2l16-36.8c-8.3-5.6-17.1-9.8-26.3-12.6-9.3-2.8-19.1-4.2-29.4-4.2-19.1,0-34.7,5.7-46.7,17-12,11.3-18,25.9-18,43.9s3.8,24.7,11.4,32.7c.3.3.5.5.8.8Z"/>
    <path class="st0" d="M813.4,125.4c7.7,5.3,18.3,9.8,31.8,13.4,13.4,3.6,22,7.1,25.8,10.4,3.8,3.4,5.7,8.2,5.7,14.4s-2.2,10.3-6.6,14c-4.4,3.7-10,5.5-16.8,5.5s-14.7-2.1-22.1-6.4c-7.4-4.3-14.9-10.7-22.5-19.3l-23.1,38.1c9.9,9.5,20.2,16.4,30.9,20.9,10.7,4.4,22.6,6.7,35.7,6.7,21.8,0,39.2-6,52.3-18.1,13.1-12.1,19.6-28.1,19.6-48s-.3-7.2-.8-10.5l-110-20.9Z"/>
    <polygon class="st2" points="782.2 102.5 782.2 21.4 731.4 21.4 731.4 92.9 782.2 102.5"/>
    <path class="st0" d="M724.9,102v15.8c0,13.4-.3,23-1,28.9-.7,5.9-1.8,10.7-3.5,14.7-2,4.8-5.5,8.4-10.3,11-4.8,2.5-10.7,3.8-17.7,3.8s-12.9-1.3-17.8-3.8c-4.9-2.5-8.3-6.2-10.3-11-1.6-3.9-2.8-8.8-3.5-14.7-.7-5.8-1-15.5-1-28.9v-28.2l-51-9.7v45.8c0,20.6,1.3,35.8,3.8,45.5,2.5,9.8,6.7,18.1,12.5,25,6.5,7.6,15.3,13.3,26.5,17.1,11.1,3.8,24.7,5.7,40.8,5.7s29.6-1.9,40.7-5.7c11.2-3.8,20-9.5,26.4-17.1,5.9-6.9,10.1-15.3,12.6-25,2.5-9.8,3.7-25,3.7-45.5v-14l-50.9-9.7Z"/>
    <polygon class="st2" points="666.3 80.5 666.3 21.4 615.3 21.4 615.3 70.8 666.3 80.5"/>
  </g>
</svg>