<?xml version="1.0" encoding="iso-8859-1"?>
<!-- Generator: Adobe Illustrator 27.4.1, SVG Export Plug-In . SVG Version: 6.00 Build 0)  -->
<svg version="1.1" id="Capa_1" xmlns="http://www.w3.org/2000/svg" xmlns:xlink="http://www.w3.org/1999/xlink" x="0px" y="0px"
	 viewBox="0 0 20 17.325" style="enable-background:new 0 0 20 17.325;" xml:space="preserve">
<g id="Capa_1_00000062181426067675770060000009409553369753759379_">
</g>
<g id="Capa_2_00000023973707493069580830000001899745537415071165_">
	<path style="fill:#BAF703;" d="M16.323,0H3.677L0,5.096l10,12.229L20,5.096L16.323,0z M5.088,5.684l2.878,7.222L2.06,5.684H5.088z
		 M10,5.684h3.597L10,14.709L6.404,5.684H10z M6.639,4.462l2.141-3.24h2.441l2.141,3.239H10L6.639,4.462L6.639,4.462z M14.912,5.684
		h3.028l-5.906,7.221L14.912,5.684z M18.035,4.462h-3.208l-2.141-3.239h3.011L18.035,4.462z M4.302,1.221h3.011L5.173,4.46H1.965
		L4.302,1.221z"/>
</g>
</svg>
